<svg t="1705751983764" class="icon" viewBox="0 0 1024 1024" version="1.1" xmlns="http://www.w3.org/2000/svg" p-id="32020" width="200" height="200"><path d="M896 201.514667C896 160.853333 863.061333 128 822.485333 128H201.514667C160.853333 128 128 160.938667 128 201.514667v620.970666C128 863.146667 160.938667 896 201.514667 896h620.970666C863.146667 896 896 863.061333 896 822.485333V201.514667zM202.154667 187.562667h612.693333c7.594667 0 12.714667 5.205333 12.714667 12.885333v392.405333h-177.578667c-16.256 0-29.44 12.8-29.44 29.312 0 64.938667-52.096 117.589333-116.266667 117.589334-62.464 0-113.621333-50.346667-116.181333-113.109334a29.141333 29.141333 0 0 0-29.056-33.706666h-171.52v-392.533334c0-7.68 7.125333-12.842667 14.634667-12.842666zM823.466667 836.352H202.325333a15.658667 15.658667 0 0 1-14.848-14.848V652.373333H333.653333a178.005333 178.005333 0 0 0 174.976 147.712 178.005333 178.005333 0 0 0 175.018667-147.712h152.704v169.088c0 7.594667-5.205333 14.848-12.885333 14.848z" fill="#000000" p-id="32021"></path></svg>