<svg t="1705244559823" class="icon" viewBox="0 0 1024 1024" version="1.1" xmlns="http://www.w3.org/2000/svg" p-id="2045" width="128" height="128"><path d="M538.4 563.6H710v14H538.4zM206.3 361.8l-69.9-69.9c-4.2-4.2-4.2-11.1 0-15.3L249.9 163c4.2-4.2 11.1-4.2 15.3 0l69.9 69.9-128.8 128.9z m-57.8-77.6l57.8 57.8 109.1-109.1-57.8-57.8-109.1 109.1z" fill="#0F13AE" p-id="2046"></path><path d="M262.472 295.66l9.9-9.9 36.273 36.274-9.9 9.9zM820.6 361.8L691.7 232.9l69.9-69.9c4.2-4.2 11.1-4.2 15.3 0l113.6 113.6c4.2 4.2 4.2 11.1 0 15.3l-69.9 69.9zM711.5 232.9L820.6 342l57.8-57.8-109.1-109-57.8 57.7z" fill="#0F13AE" p-id="2047"></path><path d="M718.162 322.092l36.274-36.274 9.9 9.9-36.275 36.274z" fill="#0F13AE" p-id="2048"></path><path d="M418.1 105.1h175.8v85.3H418.1z" fill="#B6F5FF" p-id="2049"></path><path d="M600.9 197.4H411.1V98.1h189.8v99.3z m-175.8-14h161.8v-71.3H425.1v71.3z" fill="#0F13AE" p-id="2050"></path><path d="M469.6 130.5v31.3M462.6 130.5h14v31.3h-14zM506 130.5v31.3M499 130.5h14v31.3h-14z" fill="#49A3FE" p-id="2051"></path><path d="M542.3 130.5v31.3M535.3 130.5h14v31.3h-14z" fill="#49A3FE" p-id="2052"></path><path d="M498.22 308.94l14-0.071 0.173 33.9-14 0.07zM371.125 348.933l12.089-7.061 17.099 29.273-12.09 7.061zM280.945 447.161l6.939-12.16 29.445 16.8-6.938 12.161zM251.968 563.294l33.9-0.173 0.071 14-33.9 0.173zM284.97 692.321l29.272-17.099 7.062 12.09-29.273 17.098zM378.027 787.534l16.798-29.445 12.16 6.937-16.797 29.445zM506.22 789.646l14-0.071 0.173 33.9-14 0.07zM618.316 761.267l12.089-7.062 17.099 29.273-12.09 7.061zM701.269 680.638l6.938-12.16 29.446 16.8-6.939 12.16zM732.674 555.294l33.9-0.173 0.071 14-33.9 0.173zM697.313 445.136l29.273-17.099 7.061 12.089-29.272 17.1zM611.576 367.29l16.797-29.445 12.16 6.937-16.797 29.446z" fill="#49A3FE" p-id="2053"></path><path d="M499 190.4h14v65.7h-14z" fill="#0F13AE" p-id="2054"></path><path d="M509.5 231.1c-184.3 0-333.7 149.4-333.7 333.7 0 184.3 149.4 333.7 333.7 333.7 184.3 0 333.7-149.4 333.7-333.7 0.1-184.3-149.3-333.7-333.7-333.7z m0 594.7c-144.1 0-260.9-116.8-260.9-260.9 0-144.1 116.8-260.9 260.9-260.9s260.9 116.8 260.9 260.9c0.1 144.1-116.7 260.9-260.9 260.9z" fill="#B6F5FF" p-id="2055"></path><path d="M509.5 905.6c-91 0-176.6-35.4-240.9-99.8-64.4-64.4-99.8-149.9-99.8-240.9s35.4-176.6 99.8-240.9c64.4-64.4 149.9-99.8 240.9-99.8s176.6 35.4 240.9 99.8 99.8 149.9 99.8 240.9-35.4 176.6-99.8 240.9-149.8 99.8-240.9 99.8z m0-667.5c-180.2 0-326.7 146.6-326.7 326.7s146.6 326.7 326.7 326.7c180.2 0 326.7-146.6 326.7-326.7S689.7 238.1 509.5 238.1z m0 594.7c-71.6 0-138.8-27.9-189.5-78.5-50.6-50.6-78.5-117.9-78.5-189.5S269.4 426 320 375.3c50.6-50.6 117.9-78.5 189.5-78.5s138.8 27.9 189.5 78.5c50.6 50.6 78.5 117.9 78.5 189.5S749.6 703.7 699 754.3c-50.6 50.6-117.9 78.5-189.5 78.5z m0-521.9c-140 0-253.9 113.9-253.9 253.9s113.9 253.9 253.9 253.9 253.9-113.9 253.9-253.9-113.8-253.9-253.9-253.9z" fill="#0F13AE" p-id="2056"></path><path d="M512.5 668.4c-54.7 0-99.2-44.5-99.2-99.2s44.5-99.2 99.2-99.2v14c-47 0-85.2 38.2-85.2 85.2s38.2 85.2 85.2 85.2 85.2-38.2 85.2-85.2h14c0 54.7-44.5 99.2-99.2 99.2z" fill="#0F13AE" p-id="2057"></path><path d="M509.2 606.4c-18.7 0-34-15.3-34-34s15.3-34 34-34 34 15.3 34 34-15.2 34-34 34z m0-53.9c-11 0-20 9-20 20s9 20 20 20 20-9 20-20c0-11.1-8.9-20-20-20z" fill="#0F13AE" p-id="2058"></path><path d="M151.7 395.2l-12.7-5.9c4.1-8.9 8.6-17.7 13.3-26.3l12.2 6.8c-4.5 8.3-8.9 16.8-12.8 25.4z" fill="#0F13AE" p-id="2059"></path><path d="M117.2 672.3c-10.4-36.3-15.7-74.1-15.7-112.3 0-44.2 7-87.6 20.9-129.1l13.3 4.4c-13.4 40.1-20.2 82-20.2 124.6 0 36.8 5.1 73.3 15.1 108.4l-13.4 4z" fill="#0F13AE" p-id="2060"></path><path d="M891.2 615l-13.9-1.7c1.5-11.8 2.4-23.9 2.7-35.8l14 0.4c-0.4 12.3-1.3 24.8-2.8 37.1z" fill="#0F13AE" p-id="2061"></path><path d="M879 534.3c-2.6-33.2-9.6-66-20.5-97.5l13.2-4.6c11.4 32.6 18.5 66.6 21.3 101l-14 1.1z" fill="#0F13AE" p-id="2062"></path></svg>